<svg width="1615" height="228" viewBox="0 0 1615 228" fill="none" xmlns="http://www.w3.org/2000/svg">
<path d="M42.8358 174.817C145.507 152.2 265.134 117.721 429.028 103.979C592.921 90.2374 765.84 93.4791 859.95 84.4791C954.061 75.4791 1177.24 31.6445 1267.76 21.979C1340.18 14.2466 1487.79 7.3498 1530.28 4.47907" stroke="black"/>
<path d="M45.888 187.296C148.559 164.679 268.187 130.2 432.08 116.458C595.973 102.717 768.892 105.958 863.003 96.9583C957.113 87.9583 1180.29 44.1236 1270.81 34.4581C1343.24 26.7258 1490.84 19.8289 1533.33 16.9582" stroke="black"/>
<path d="M62.3988 199.296C165.07 176.679 284.697 142.2 448.591 128.458C612.484 114.717 785.403 117.958 879.513 108.958C973.624 99.9583 1196.8 56.1236 1287.33 46.4581C1359.75 38.7258 1507.35 31.8289 1549.84 28.9582" stroke="black"/>
<path d="M85.513 210.296C188.184 187.679 307.812 153.2 471.705 139.458C635.598 125.717 808.517 128.958 902.628 119.958C996.738 110.958 1219.91 67.1236 1310.44 57.4581C1382.86 49.7258 1530.47 42.8289 1572.96 39.9582" stroke="black"/>
<path d="M88.8158 227.296C191.487 204.679 311.114 170.2 475.008 156.458C638.901 142.717 811.82 145.958 905.93 136.958C1000.04 127.958 1223.22 84.1236 1313.74 74.4581C1386.16 66.7258 1533.77 59.8289 1576.26 56.9582" stroke="black"/>
</svg>
